<?xml version="1.0" standalone="no"?>
<!DOCTYPE svg PUBLIC "-//W3C//DTD SVG 20010904//EN"
 "http://www.w3.org/TR/2001/REC-SVG-20010904/DTD/svg10.dtd">
<svg version="1.0" xmlns="http://www.w3.org/2000/svg"
 width="260.000000pt" height="260.000000pt" viewBox="0 0 260.000000 260.000000"
 preserveAspectRatio="xMidYMid meet">
<metadata>
Created by potrace 1.11, written by Peter Selinger 2001-2013
</metadata>
<g transform="translate(0.000000,260.000000) scale(0.100000,-0.100000)"
fill="#000000" stroke="none">
<path d="M1314 2449 c-9 -16 -2 -18 62 -24 32 -3 80 -8 107 -11 38 -4 47 -2
47 11 0 8 -6 16 -12 16 -7 1 -26 3 -43 5 -101 11 -155 12 -161 3z"/>
<path d="M1035 2442 c-2 -2 -18 -5 -37 -6 -18 -2 -41 -4 -50 -5 -10 0 -18 -8
-18 -16 0 -16 28 -16 169 4 69 9 66 33 -4 29 -31 -2 -58 -4 -60 -6z"/>
<path d="M1692 2378 c2 -6 17 -16 34 -21 33 -10 70 -24 98 -39 11 -6 33 -12
49 -15 53 -8 25 20 -54 54 -77 33 -134 42 -127 21z"/>
<path d="M1258 2295 c-2 -2 -55 -5 -118 -9 -121 -7 -169 -12 -210 -22 -14 -3
-38 -8 -55 -11 -16 -2 -64 -13 -105 -24 -41 -11 -79 -21 -85 -22 -5 -2 -16 -6
-22 -10 -7 -5 -13 -6 -13 -3 0 7 -80 -23 -97 -37 -9 -6 -10 -14 -2 -29 12 -22
28 -21 129 11 76 24 261 66 340 78 70 10 361 10 420 1 25 -4 61 -10 80 -13
202 -33 471 -173 639 -333 56 -53 84 -64 95 -36 8 22 10 18 -32 61 -71 70
-174 153 -190 153 -6 0 -12 4 -14 9 -9 24 -239 137 -344 170 -71 21 -83 24
-154 37 -19 4 -44 8 -55 10 -11 2 -49 7 -85 10 -36 3 -77 6 -92 8 -15 2 -29 2
-30 1z"/>
<path d="M1210 2086 c0 -10 9 -16 23 -17 66 -2 159 -9 166 -13 4 -3 13 -1 21
4 29 18 -6 29 -108 36 -90 6 -102 4 -102 -10z"/>
<path d="M1005 2084 c-11 -2 -45 -9 -75 -15 -30 -7 -57 -11 -60 -11 -12 0 -40
-19 -40 -28 0 -13 41 -13 73 -1 14 6 45 13 68 16 24 4 49 7 54 8 6 1 13 6 17
12 7 10 1 26 -10 24 -4 -1 -16 -3 -27 -5z"/>
<path d="M1590 2027 c0 -9 16 -21 38 -28 20 -6 63 -25 96 -40 60 -29 87 -30
64 -2 -10 12 -36 27 -68 38 -3 1 -21 9 -41 18 -60 27 -89 31 -89 14z"/>
<path d="M650 1982 c-48 -15 -180 -83 -180 -92 0 -18 33 -9 122 33 56 27 85
46 80 53 -4 6 -14 9 -22 6z"/>
<path d="M1042 1915 c-39 -7 -82 -17 -95 -21 -12 -4 -26 -9 -32 -10 -106 -22
-506 -229 -490 -254 13 -21 82 -7 145 30 175 102 338 167 485 194 76 13 283
15 331 3 12 -3 38 -8 58 -11 97 -16 271 -102 390 -193 52 -41 67 -48 99 -45
l38 3 -48 45 c-113 107 -322 221 -455 248 -13 3 -34 8 -48 11 -55 14 -305 14
-378 0z"/>
<path d="M1930 1851 c0 -5 17 -21 38 -37 56 -43 60 -47 92 -79 23 -23 32 -27
42 -17 14 14 9 18 -85 95 -54 44 -87 58 -87 38z"/>
<path d="M1040 1713 c-30 -8 -62 -15 -70 -17 -8 -2 -16 -10 -18 -19 -3 -12 3
-15 25 -11 15 2 35 7 43 10 20 8 58 15 96 18 37 4 56 14 49 26 -8 12 -58 9
-125 -7z"/>
<path d="M1335 1709 c-9 -14 -6 -16 35 -23 19 -3 64 -15 100 -26 61 -18 96
-15 68 7 -15 12 -156 53 -180 53 -9 0 -20 -5 -23 -11z"/>
<path d="M766 1607 c-15 -11 -15 -13 8 -15 14 -1 26 2 26 8 0 16 -17 20 -34 7z"/>
<path d="M448 1532 l-28 -3 0 -220 0 -219 45 0 45 0 0 167 c0 93 4 163 9 158
4 -6 36 -81 71 -167 l62 -158 69 0 69 0 0 219 0 219 -22 4 c-13 2 -33 2 -45 0
-23 -3 -23 -5 -23 -170 -1 -194 2 -194 -80 23 -29 77 -54 142 -56 143 -4 5
-84 8 -116 4z"/>
<path d="M221 1310 l-1 -220 45 0 45 0 0 220 0 220 -44 0 -45 0 0 -220z"/>
<path d="M905 1313 l0 -218 42 -3 42 -3 3 73 3 73 65 0 c36 0 70 3 76 7 6 4
10 22 10 40 l-1 33 -78 3 -78 3 3 62 3 62 94 0 94 1 0 39 0 40 -139 3 -139 3
0 -218z"/>
<path d="M1272 1310 l0 -220 124 0 124 0 0 43 0 43 -80 -1 -80 -1 0 178 0 178
-44 0 -44 0 0 -220z"/>
<path d="M1610 1360 c0 -188 8 -225 56 -257 40 -26 160 -28 204 -4 62 33 70
64 70 258 l0 173 -45 0 -45 0 0 -164 c0 -190 -3 -198 -75 -198 -74 0 -78 9
-76 204 l0 158 -44 0 -45 0 0 -170z"/>
<path d="M2061 1433 c28 -54 56 -103 61 -110 6 -7 -8 -41 -40 -100 -83 -150
-80 -133 -22 -133 l50 0 38 75 38 76 38 -76 39 -75 48 0 49 0 -12 28 c-7 15
-15 32 -19 37 -16 23 -79 146 -79 154 0 4 25 54 55 110 30 57 55 105 55 107 0
2 -22 4 -48 4 l-49 0 -34 -70 c-19 -38 -37 -70 -41 -70 -4 0 -23 32 -44 70
l-36 70 -50 0 -49 0 52 -97z"/>
<path d="M1433 1016 c12 -17 27 -34 32 -38 6 -4 7 -8 2 -8 -4 0 -1 -12 6 -27
40 -79 54 -257 31 -403 -22 -147 -25 -160 -60 -265 -19 -57 -34 -108 -34 -113
0 -13 26 -23 43 -17 25 10 95 240 114 375 13 96 7 309 -11 370 -9 30 -18 60
-19 65 -1 6 -13 28 -25 50 -20 36 -27 40 -62 41 l-38 1 21 -31z"/>
<path d="M866 1025 c-39 -32 -89 -144 -100 -225 -3 -25 -8 -54 -10 -65 -31
-147 -41 -191 -62 -255 -13 -41 -24 -83 -24 -93 0 -23 28 -33 45 -16 16 17 58
130 50 137 -2 3 0 11 6 19 6 7 8 13 5 13 -4 0 -2 8 3 18 5 10 12 38 16 62 4
25 8 47 10 50 3 6 15 72 20 110 9 79 36 143 90 214 l35 47 -36 -3 c-20 -1 -42
-7 -48 -13z"/>
<path d="M1670 1031 c0 -5 4 -21 10 -35 11 -30 41 -26 33 5 -6 21 -43 47 -43
30z"/>
<path d="M705 1021 c-3 -6 -10 -9 -14 -6 -10 5 -32 -41 -24 -49 12 -12 22 -5
37 26 15 29 16 52 1 29z"/>
<path d="M1867 1014 c-3 -3 -2 -17 4 -31 5 -13 11 -41 14 -61 2 -20 7 -48 10
-62 24 -114 21 -388 -5 -503 -11 -52 -3 -77 26 -77 13 0 24 2 24 4 0 2 4 26 9
53 27 142 30 333 7 539 -5 48 -27 134 -34 135 -4 0 -16 2 -28 4 -12 3 -24 2
-27 -1z"/>
<path d="M504 1002 c-28 -3 -33 -8 -48 -55 -22 -69 -28 -96 -30 -132 -1 -25 3
-30 22 -30 22 0 27 11 57 110 18 60 33 110 32 110 -1 0 -16 -1 -33 -3z"/>
<path d="M1167 991 c-16 -6 -17 -9 -5 -18 8 -7 29 -15 47 -18 35 -6 90 -39
104 -62 10 -17 37 -17 37 0 0 36 -142 112 -183 98z"/>
<path d="M2105 923 c5 -27 12 -82 19 -151 4 -37 10 -47 25 -37 6 3 9 20 6 38
-2 18 -7 59 -10 91 -8 72 -13 86 -31 86 -10 0 -13 -8 -9 -27z"/>
<path d="M996 856 c-17 -41 -36 -155 -29 -174 6 -15 34 4 31 22 -1 6 1 32 6
58 4 26 7 50 7 53 0 2 6 17 14 32 8 14 12 30 9 35 -10 16 -24 7 -38 -26z"/>
<path d="M1165 850 c-3 -5 -8 -52 -10 -102 -6 -153 -50 -340 -124 -525 -17
-44 -18 -53 -6 -63 20 -17 43 -6 56 27 6 15 16 41 24 58 16 36 72 211 80 251
3 16 8 44 11 63 3 18 7 43 10 55 9 45 15 206 9 225 -7 22 -39 29 -50 11z"/>
<path d="M1735 810 c-8 -13 -7 -211 1 -219 16 -16 26 28 26 114 0 92 -10 132
-27 105z"/>
<path d="M605 763 c-5 -21 -9 -44 -11 -52 -1 -7 -8 -36 -14 -63 -8 -33 -9 -53
-2 -60 14 -14 19 -3 42 96 24 103 24 116 6 116 -8 0 -17 -16 -21 -37z"/>
<path d="M1359 683 c0 -21 -2 -49 -4 -63 -14 -106 -14 -120 0 -120 8 0 15 6
16 13 0 6 3 26 7 42 11 57 8 158 -5 162 -9 3 -13 -8 -14 -34z"/>
<path d="M933 508 c-6 -7 -18 -42 -27 -78 -9 -36 -21 -76 -27 -89 -7 -17 -7
-27 1 -35 16 -16 26 2 53 100 24 89 23 131 0 102z"/>
<path d="M1709 428 c-21 -78 -43 -210 -36 -215 15 -9 24 9 40 87 22 106 24
123 10 127 -7 3 -13 3 -14 1z"/>
<path d="M1292 323 c-5 -10 -17 -43 -27 -73 -10 -30 -24 -67 -31 -82 -9 -17
-10 -29 -4 -33 14 -9 39 19 42 47 2 13 6 25 9 28 8 7 39 100 39 117 0 19 -18
16 -28 -4z"/>
</g>
</svg>
